<mxfile host="app.diagrams.net" modified="2024-04-19T14:16:13.061Z" agent="Mozilla/5.0 (Windows NT 10.0; Win64; x64) AppleWebKit/537.36 (KHTML, like Gecko) Chrome/124.0.0.0 Safari/537.36" etag="KG5S9DipTRfKMk5H9KsK" version="24.2.5" type="github">
  <diagram id="C5RBs43oDa-KdzZeNtuy" name="Page-1">
    <mxGraphModel dx="1429" dy="813" grid="1" gridSize="10" guides="1" tooltips="1" connect="1" arrows="1" fold="1" page="1" pageScale="1" pageWidth="827" pageHeight="1169" math="0" shadow="0">
      <root>
        <mxCell id="WIyWlLk6GJQsqaUBKTNV-0" />
        <mxCell id="WIyWlLk6GJQsqaUBKTNV-1" parent="WIyWlLk6GJQsqaUBKTNV-0" />
        <mxCell id="aeO-pkNPaWENlXSjOjyO-0" value="ExoPlayer" style="rounded=1;whiteSpace=wrap;html=1;" vertex="1" parent="WIyWlLk6GJQsqaUBKTNV-1">
          <mxGeometry x="70" y="170" width="100" height="60" as="geometry" />
        </mxCell>
        <mxCell id="aeO-pkNPaWENlXSjOjyO-1" value="Media Session" style="rounded=1;whiteSpace=wrap;html=1;" vertex="1" parent="WIyWlLk6GJQsqaUBKTNV-1">
          <mxGeometry x="230" y="170" width="100" height="60" as="geometry" />
        </mxCell>
        <mxCell id="aeO-pkNPaWENlXSjOjyO-2" value="&lt;p style=&quot;line-height: 40%;&quot;&gt;&lt;br&gt;&lt;/p&gt;" style="rounded=1;whiteSpace=wrap;html=1;fillColor=none;dashed=1;align=left;" vertex="1" parent="WIyWlLk6GJQsqaUBKTNV-1">
          <mxGeometry x="30" y="120" width="340" height="160" as="geometry" />
        </mxCell>
        <mxCell id="aeO-pkNPaWENlXSjOjyO-3" value="Playback Service" style="text;html=1;align=center;verticalAlign=middle;whiteSpace=wrap;rounded=0;fontSize=16;fontStyle=1" vertex="1" parent="WIyWlLk6GJQsqaUBKTNV-1">
          <mxGeometry x="40" y="120" width="150" height="30" as="geometry" />
        </mxCell>
        <mxCell id="aeO-pkNPaWENlXSjOjyO-5" value="&lt;p style=&quot;line-height: 40%;&quot;&gt;&lt;br&gt;&lt;/p&gt;" style="rounded=1;whiteSpace=wrap;html=1;fillColor=none;dashed=1;align=left;" vertex="1" parent="WIyWlLk6GJQsqaUBKTNV-1">
          <mxGeometry x="450" y="120" width="340" height="160" as="geometry" />
        </mxCell>
        <mxCell id="aeO-pkNPaWENlXSjOjyO-6" value="Media Controller" style="rounded=1;whiteSpace=wrap;html=1;" vertex="1" parent="WIyWlLk6GJQsqaUBKTNV-1">
          <mxGeometry x="480" y="170" width="120" height="60" as="geometry" />
        </mxCell>
        <mxCell id="aeO-pkNPaWENlXSjOjyO-7" value="Player UI&amp;nbsp;" style="rounded=1;whiteSpace=wrap;html=1;" vertex="1" parent="WIyWlLk6GJQsqaUBKTNV-1">
          <mxGeometry x="650" y="170" width="120" height="60" as="geometry" />
        </mxCell>
        <mxCell id="aeO-pkNPaWENlXSjOjyO-8" value="Player Activity" style="text;html=1;align=center;verticalAlign=middle;whiteSpace=wrap;rounded=0;fontSize=16;fontStyle=1" vertex="1" parent="WIyWlLk6GJQsqaUBKTNV-1">
          <mxGeometry x="470" y="120" width="120" height="30" as="geometry" />
        </mxCell>
        <mxCell id="aeO-pkNPaWENlXSjOjyO-10" value="" style="endArrow=classic;startArrow=classic;html=1;rounded=0;fontSize=12;startSize=8;endSize=8;curved=1;entryX=0;entryY=0.5;entryDx=0;entryDy=0;" edge="1" parent="WIyWlLk6GJQsqaUBKTNV-1" target="aeO-pkNPaWENlXSjOjyO-6">
          <mxGeometry width="50" height="50" relative="1" as="geometry">
            <mxPoint x="330" y="200" as="sourcePoint" />
            <mxPoint x="360" y="210" as="targetPoint" />
          </mxGeometry>
        </mxCell>
        <mxCell id="aeO-pkNPaWENlXSjOjyO-15" value="&lt;p style=&quot;line-height: 40%;&quot;&gt;&lt;br&gt;&lt;/p&gt;" style="rounded=1;whiteSpace=wrap;html=1;fillColor=none;dashed=1;align=left;" vertex="1" parent="WIyWlLk6GJQsqaUBKTNV-1">
          <mxGeometry x="450" y="350" width="340" height="160" as="geometry" />
        </mxCell>
        <mxCell id="aeO-pkNPaWENlXSjOjyO-16" value="Torrent Service" style="text;html=1;align=center;verticalAlign=middle;whiteSpace=wrap;rounded=0;fontSize=16;fontStyle=1" vertex="1" parent="WIyWlLk6GJQsqaUBKTNV-1">
          <mxGeometry x="450" y="350" width="150" height="30" as="geometry" />
        </mxCell>
        <mxCell id="aeO-pkNPaWENlXSjOjyO-17" value="&lt;p style=&quot;line-height: 40%;&quot;&gt;&lt;br&gt;&lt;/p&gt;" style="rounded=1;whiteSpace=wrap;html=1;fillColor=none;dashed=1;align=left;" vertex="1" parent="WIyWlLk6GJQsqaUBKTNV-1">
          <mxGeometry x="30" y="350" width="340" height="160" as="geometry" />
        </mxCell>
        <mxCell id="aeO-pkNPaWENlXSjOjyO-19" value="Torrent Stream Server" style="text;html=1;align=center;verticalAlign=middle;whiteSpace=wrap;rounded=0;fontSize=16;fontStyle=1" vertex="1" parent="WIyWlLk6GJQsqaUBKTNV-1">
          <mxGeometry x="45" y="350" width="185" height="30" as="geometry" />
        </mxCell>
        <mxCell id="aeO-pkNPaWENlXSjOjyO-20" value="NanoHttp&lt;br&gt;Server Instance" style="rounded=1;whiteSpace=wrap;html=1;" vertex="1" parent="WIyWlLk6GJQsqaUBKTNV-1">
          <mxGeometry x="70" y="400" width="100" height="60" as="geometry" />
        </mxCell>
        <mxCell id="aeO-pkNPaWENlXSjOjyO-22" value="" style="endArrow=classic;startArrow=classic;html=1;rounded=0;fontSize=12;curved=1;entryX=0.5;entryY=1;entryDx=0;entryDy=0;strokeColor=default;fillColor=none;endSize=7;startSize=7;exitX=0.838;exitY=-0.1;exitDx=0;exitDy=0;exitPerimeter=0;" edge="1" parent="WIyWlLk6GJQsqaUBKTNV-1" source="aeO-pkNPaWENlXSjOjyO-19" target="aeO-pkNPaWENlXSjOjyO-2">
          <mxGeometry width="100" height="100" relative="1" as="geometry">
            <mxPoint x="200" y="340" as="sourcePoint" />
            <mxPoint x="470" y="440" as="targetPoint" />
          </mxGeometry>
        </mxCell>
        <mxCell id="aeO-pkNPaWENlXSjOjyO-23" value="always running" style="text;html=1;align=center;verticalAlign=middle;whiteSpace=wrap;rounded=0;fontSize=16;fontStyle=2" vertex="1" parent="WIyWlLk6GJQsqaUBKTNV-1">
          <mxGeometry x="650" y="480" width="140" height="30" as="geometry" />
        </mxCell>
        <mxCell id="aeO-pkNPaWENlXSjOjyO-27" style="edgeStyle=none;curved=1;rounded=0;orthogonalLoop=1;jettySize=auto;html=1;exitX=1;exitY=0.5;exitDx=0;exitDy=0;fontSize=12;startSize=8;endSize=8;" edge="1" parent="WIyWlLk6GJQsqaUBKTNV-1" source="aeO-pkNPaWENlXSjOjyO-24" target="aeO-pkNPaWENlXSjOjyO-26">
          <mxGeometry relative="1" as="geometry" />
        </mxCell>
        <mxCell id="aeO-pkNPaWENlXSjOjyO-24" value="Torrent Stream Listener" style="rounded=1;whiteSpace=wrap;html=1;" vertex="1" parent="WIyWlLk6GJQsqaUBKTNV-1">
          <mxGeometry x="220" y="400" width="120" height="60" as="geometry" />
        </mxCell>
        <mxCell id="aeO-pkNPaWENlXSjOjyO-25" value="Torrent Engine" style="rounded=1;whiteSpace=wrap;html=1;" vertex="1" parent="WIyWlLk6GJQsqaUBKTNV-1">
          <mxGeometry x="650" y="400" width="120" height="60" as="geometry" />
        </mxCell>
        <mxCell id="aeO-pkNPaWENlXSjOjyO-28" style="edgeStyle=none;curved=1;rounded=0;orthogonalLoop=1;jettySize=auto;html=1;entryX=1;entryY=0.5;entryDx=0;entryDy=0;fontSize=12;startSize=8;endSize=8;" edge="1" parent="WIyWlLk6GJQsqaUBKTNV-1" source="aeO-pkNPaWENlXSjOjyO-26" target="aeO-pkNPaWENlXSjOjyO-24">
          <mxGeometry relative="1" as="geometry" />
        </mxCell>
        <mxCell id="aeO-pkNPaWENlXSjOjyO-26" value="Torrent Handle" style="rounded=1;whiteSpace=wrap;html=1;" vertex="1" parent="WIyWlLk6GJQsqaUBKTNV-1">
          <mxGeometry x="480" y="400" width="120" height="60" as="geometry" />
        </mxCell>
      </root>
    </mxGraphModel>
  </diagram>
</mxfile>
